<svg width="30" height="30" viewBox="0 0 30 30" fill="none" xmlns="http://www.w3.org/2000/svg">
<path fill-rule="evenodd" clip-rule="evenodd" d="M20.3333 11.0001C20.3333 12.4146 19.7714 13.7711 18.7712 14.7713C17.771 15.7715 16.4145 16.3334 15 16.3334C13.5855 16.3334 12.229 15.7715 11.2288 14.7713C10.2286 13.7711 9.66667 12.4146 9.66667 11.0001C9.66667 9.58559 10.2286 8.22904 11.2288 7.22885C12.229 6.22865 13.5855 5.66675 15 5.66675C16.4145 5.66675 17.771 6.22865 18.7712 7.22885C19.7714 8.22904 20.3333 9.58559 20.3333 11.0001ZM17.6667 11.0001C17.6667 11.7073 17.3857 12.3856 16.8856 12.8857C16.3855 13.3858 15.7072 13.6667 15 13.6667C14.2928 13.6667 13.6145 13.3858 13.1144 12.8857C12.6143 12.3856 12.3333 11.7073 12.3333 11.0001C12.3333 10.2928 12.6143 9.61456 13.1144 9.11446C13.6145 8.61437 14.2928 8.33341 15 8.33341C15.7072 8.33341 16.3855 8.61437 16.8856 9.11446C17.3857 9.61456 17.6667 10.2928 17.6667 11.0001Z" fill="#FCA326"/>
<path fill-rule="evenodd" clip-rule="evenodd" d="M15 0.333374C6.9 0.333374 0.333336 6.90004 0.333336 15C0.333336 23.1 6.9 29.6667 15 29.6667C23.1 29.6667 29.6667 23.1 29.6667 15C29.6667 6.90004 23.1 0.333374 15 0.333374ZM3 15C3 17.7867 3.95067 20.352 5.544 22.3894C6.66298 20.9199 8.10654 19.729 9.76191 18.9098C11.4173 18.0905 13.2397 17.6651 15.0867 17.6667C16.9098 17.665 18.7092 18.0794 20.3479 18.8784C21.9866 19.6774 23.4213 20.8399 24.5427 22.2774C25.6979 20.7622 26.4758 18.9937 26.8119 17.1182C27.1479 15.2427 27.0326 13.3141 26.4753 11.492C25.9181 9.66995 24.935 8.00677 23.6073 6.64009C22.2797 5.27341 20.6457 4.24252 18.8405 3.63272C17.0354 3.02292 15.1109 2.85174 13.2265 3.13334C11.342 3.41494 9.55172 4.14123 8.00369 5.25211C6.45567 6.363 5.19442 7.82653 4.32431 9.52164C3.4542 11.2167 3.00024 13.0947 3 15ZM15 27C12.2453 27.0042 9.57369 26.0565 7.43734 24.3174C8.29724 23.0864 9.44179 22.0813 10.7736 21.3876C12.1054 20.694 13.5851 20.3323 15.0867 20.3334C16.5696 20.3322 18.0313 20.6848 19.3506 21.3619C20.6698 22.0391 21.8085 23.0212 22.672 24.2267C20.5191 26.0223 17.8034 27.004 15 27Z" fill="#FCA326"/>
</svg>
