<svg width="28" height="28" viewBox="0 0 28 28" fill="none" xmlns="http://www.w3.org/2000/svg">
<path d="M24.6667 11.3334C24.6667 10.9798 24.5262 10.6406 24.2761 10.3906C24.0261 10.1405 23.6869 10 23.3333 10C22.9797 10 22.6406 10.1405 22.3905 10.3906C22.1405 10.6406 22 10.9798 22 11.3334H24.6667ZM5.99999 11.3334C5.99999 10.9798 5.85951 10.6406 5.60946 10.3906C5.35941 10.1405 5.02027 10 4.66665 10C4.31303 10 3.97389 10.1405 3.72384 10.3906C3.4738 10.6406 3.33332 10.9798 3.33332 11.3334H5.99999ZM25.0573 14.9427C25.3088 15.1856 25.6456 15.32 25.9952 15.3169C26.3448 15.3139 26.6792 15.1737 26.9264 14.9265C27.1736 14.6793 27.3138 14.3448 27.3169 13.9952C27.3199 13.6456 27.1855 13.3088 26.9427 13.0574L25.0573 14.9427ZM14 2.00004L14.9427 1.05737C14.6926 0.807413 14.3535 0.666992 14 0.666992C13.6464 0.666992 13.3074 0.807413 13.0573 1.05737L14 2.00004ZM1.05732 13.0574C0.929972 13.1804 0.828396 13.3275 0.758518 13.4902C0.688639 13.6528 0.651857 13.8278 0.650319 14.0048C0.64878 14.1819 0.682516 14.3575 0.749557 14.5213C0.816598 14.6852 0.915603 14.834 1.04079 14.9592C1.16598 15.0844 1.31485 15.1834 1.47871 15.2505C1.64258 15.3175 1.81815 15.3512 1.99519 15.3497C2.17223 15.3482 2.34719 15.3114 2.50986 15.2415C2.67253 15.1716 2.81966 15.0701 2.94265 14.9427L1.05732 13.0574ZM7.33332 27.3334H20.6667V24.6667H7.33332V27.3334ZM24.6667 23.3334V11.3334H22V23.3334H24.6667ZM5.99999 23.3334V11.3334H3.33332V23.3334H5.99999ZM26.9427 13.0574L14.9427 1.05737L13.0573 2.94271L25.0573 14.9427L26.9427 13.0574ZM13.0573 1.05737L1.05732 13.0574L2.94265 14.9427L14.9427 2.94271L13.0573 1.05737ZM20.6667 27.3334C21.7275 27.3334 22.7449 26.9119 23.4951 26.1618C24.2452 25.4117 24.6667 24.3942 24.6667 23.3334H22C22 23.687 21.8595 24.0261 21.6095 24.2762C21.3594 24.5262 21.0203 24.6667 20.6667 24.6667V27.3334ZM7.33332 24.6667C6.9797 24.6667 6.64056 24.5262 6.39051 24.2762C6.14046 24.0261 5.99999 23.687 5.99999 23.3334H3.33332C3.33332 24.3942 3.75475 25.4117 4.50489 26.1618C5.25504 26.9119 6.27245 27.3334 7.33332 27.3334V24.6667Z" fill="#FCA326"/>
</svg>
