<svg width="64" height="55" viewBox="0 0 14 12" fill="none" xmlns="http://www.w3.org/2000/svg">
<path fill-rule="evenodd" clip-rule="evenodd" d="M10.6994 4.76193C10.4163 4.76193 10.1837 4.53983 10.1837 4.26617C10.1837 3.99251 10.4101 3.77041 10.6933 3.77041H10.6994C10.9826 3.77041 11.2124 3.99251 11.2124 4.26617C11.2124 4.53983 10.9826 4.76193 10.6994 4.76193ZM7.33367 9.15369C5.86453 9.15369 4.66965 7.99824 4.66965 6.57839C4.66965 5.15919 5.86453 4.00441 7.33367 4.00441C8.80281 4.00441 9.99769 5.15919 9.99769 6.57839C9.99769 7.99824 8.80281 9.15369 7.33367 9.15369ZM11.1768 2.03592C11.0612 2.00088 10.893 1.92751 10.7514 1.77746C10.6926 1.71533 10.6133 1.55999 10.5366 1.4106C10.3301 1.00672 10.0476 0.454116 9.47925 0.222762C8.74878 -0.0733711 5.94455 -0.0746932 5.19014 0.22144C4.6293 0.444201 4.3434 0.99945 4.1348 1.40465C4.05614 1.55668 3.97543 1.714 3.91525 1.77746C3.77435 1.92817 3.6061 2.00088 3.50145 2.03327C1.24644 2.63611 0.833328 4.05266 0.833328 6.624C0.833328 10.3415 1.77172 12 7.33367 12C12.8949 12 13.8333 10.3415 13.8333 6.624C13.8333 4.05266 13.4209 2.63611 11.1768 2.03592Z" fill="#63C48C"/>
<path fill-rule="evenodd" clip-rule="evenodd" d="M7.33376 4.99559C6.43025 4.99559 5.69568 5.70552 5.69568 6.57871C5.69568 7.45191 6.43025 8.16183 7.33376 8.16183C8.23727 8.16183 8.97184 7.45191 8.97184 6.57871C8.97184 5.70552 8.23727 4.99559 7.33376 4.99559Z" fill="#63C48C"/>
</svg>
