<svg width="64" height="64" viewBox="0 0 13 12" fill="none" xmlns="http://www.w3.org/2000/svg">
<path d="M7.99999 7.33325L7.67133 7.38792C7.66339 7.34019 7.66594 7.2913 7.6788 7.24465C7.69167 7.19801 7.71453 7.15472 7.7458 7.1178C7.77708 7.08088 7.81601 7.05121 7.85991 7.03085C7.90381 7.0105 7.95161 6.99994 7.99999 6.99992V7.33325ZM0.666662 7.33325V7.66658C0.578256 7.66658 0.493472 7.63147 0.430959 7.56895C0.368447 7.50644 0.333328 7.42166 0.333328 7.33325H0.666662ZM1.99999 0.333252H9.57333V0.999919H1.99999V0.333252ZM10.3733 7.66658H7.99999V6.99992H10.3733V7.66658ZM8.32866 7.27858L8.86599 10.5019L8.20866 10.6119L7.67133 7.38792L8.32866 7.27858ZM7.87999 11.6666H7.73799V10.9999H7.87999V11.6666ZM5.79599 10.6279L4.11933 8.11192L4.67399 7.74192L6.35066 10.2579L5.79599 10.6279ZM3.28666 7.66658H0.666662V6.99992H3.28666V7.66658ZM0.333328 7.33325V1.99992H0.999995V7.33325H0.333328ZM11.208 1.67325L12.008 5.67325L11.3547 5.80392L10.5547 1.80392L11.208 1.67325ZM4.11933 8.11192C4.02802 7.97494 3.90364 7.86262 3.7585 7.78494C3.61336 7.70725 3.45128 7.6666 3.28666 7.66658V6.99992C3.56101 6.99991 3.83112 7.06764 4.07302 7.19707C4.31491 7.32651 4.52178 7.51366 4.67399 7.74192L4.11933 8.11192ZM8.86599 10.5019C8.88992 10.6452 8.88233 10.792 8.84376 10.9321C8.80519 11.0721 8.73656 11.2021 8.64265 11.313C8.54874 11.4238 8.43181 11.5129 8.29998 11.574C8.16816 11.635 8.02528 11.6666 7.87999 11.6666V10.9999C7.92844 11 7.97565 10.9895 8.01962 10.9692C8.0636 10.9489 8.10262 10.9192 8.13397 10.8823C8.16532 10.8454 8.18824 10.802 8.20114 10.7553C8.21404 10.7086 8.21661 10.6597 8.20866 10.6119L8.86599 10.5019ZM10.3733 6.99992C10.5213 6.99993 10.6674 6.96711 10.8011 6.90383C10.9348 6.84055 11.0529 6.74838 11.1467 6.63398C11.2405 6.51957 11.3077 6.38578 11.3436 6.24224C11.3794 6.0987 11.3837 5.949 11.3547 5.80392L12.008 5.67325C12.0563 5.91496 12.0497 6.16437 11.99 6.40352C11.9304 6.64267 11.8184 6.8656 11.6621 7.05625C11.5059 7.24691 11.3094 7.40054 11.0866 7.50608C10.8639 7.61162 10.6205 7.66644 10.374 7.66658L10.3733 6.99992ZM9.57333 0.333252C9.95871 0.333176 10.3322 0.466657 10.6303 0.710974C10.9283 0.955291 11.1325 1.29534 11.208 1.67325L10.5547 1.80392C10.5093 1.57708 10.3867 1.37298 10.2078 1.22638C10.0289 1.07978 9.80465 0.99975 9.57333 0.999919V0.333252ZM7.73733 11.6666C7.35314 11.6667 6.97486 11.572 6.63608 11.3908C6.2973 11.2096 6.0085 10.9475 5.79533 10.6279L6.34999 10.2579C6.5022 10.4862 6.70841 10.6733 6.9503 10.8028C7.1922 10.9322 7.46231 10.9999 7.73666 10.9999L7.73733 11.6666ZM1.99999 0.999919C1.73478 0.999919 1.48042 1.10528 1.29289 1.29281C1.10535 1.48035 0.999995 1.7347 0.999995 1.99992H0.333328C0.333328 1.55789 0.508923 1.13397 0.821484 0.821407C1.13404 0.508847 1.55797 0.333252 1.99999 0.333252V0.999919Z" fill="black"/>
</svg>
