<svg width="64" height="64" viewBox="0 0 13 12" fill="none" xmlns="http://www.w3.org/2000/svg">
<path d="M8 4.66675L7.50666 4.58475C7.49476 4.65637 7.49859 4.72973 7.5179 4.79972C7.53721 4.86972 7.57153 4.93466 7.61848 4.99005C7.66543 5.04544 7.72388 5.08994 7.78976 5.12045C7.85565 5.15096 7.92739 5.16676 8 5.16675V4.66675ZM0.666664 4.66675V4.16675C0.534056 4.16675 0.406879 4.21943 0.313111 4.31319C0.219342 4.40696 0.166664 4.53414 0.166664 4.66675H0.666664ZM2 11.8334H9.57333V10.8334H2V11.8334ZM10.3733 4.16675H8V5.16675H10.3733V4.16675ZM8.49333 4.74875L9.03066 1.52541L8.044 1.36075L7.50666 4.58475L8.49333 4.74875ZM7.88 0.166748H7.73733V1.16675H7.87933L7.88 0.166748ZM5.65666 1.28008L3.98 3.79541L4.812 4.35008L6.48866 1.83475L5.65666 1.28008ZM3.28666 4.16675H0.666664V5.16675H3.28666V4.16675ZM0.166664 4.66675V10.0001H1.16666V4.66675H0.166664ZM11.3713 10.3601L12.1713 6.36008L11.1913 6.16341L10.3913 10.1634L11.3713 10.3601ZM3.98 3.79541C3.90393 3.9096 3.80085 4.00258 3.67989 4.06736C3.55894 4.13214 3.42387 4.16605 3.28666 4.16608V5.16608C3.9 5.16608 4.472 4.86008 4.812 4.35008L3.98 3.79541ZM9.03066 1.52541C9.05844 1.35833 9.0495 1.18653 9.00447 1.02324C8.95944 0.859958 8.87939 0.708437 8.7699 0.579208C8.6604 0.44998 8.52407 0.346144 8.3704 0.274916C8.21672 0.203689 8.04938 0.166778 7.88 0.166748L7.87933 1.16675C7.9035 1.16681 7.92802 1.17212 7.94993 1.18232C7.97184 1.19252 7.99127 1.20736 8.00687 1.22582C8.02247 1.24427 8.03387 1.2659 8.04028 1.2892C8.04669 1.3125 8.04796 1.33691 8.044 1.36075L9.03066 1.52541ZM10.3733 5.16608C10.9 5.16608 11.2933 5.64742 11.1907 6.16275L12.1713 6.35941C12.2244 6.09348 12.2178 5.81842 12.152 5.55534C12.0862 5.29226 11.9629 5.04705 11.7909 4.83739C11.6189 4.62772 11.4026 4.45882 11.1574 4.34285C10.9123 4.22688 10.6445 4.16673 10.3733 4.16675V5.16608ZM9.57333 11.8334C9.99714 11.8335 10.4079 11.6861 10.7357 11.4175C11.0635 11.1489 11.2881 10.775 11.3713 10.3594L10.3913 10.1627C10.3535 10.3518 10.2514 10.5219 10.1022 10.6441C9.95304 10.7663 9.76614 10.8336 9.57333 10.8334V11.8334ZM7.73733 0.166748C7.32577 0.166778 6.92059 0.267745 6.55774 0.461961C6.19489 0.656178 5.88561 0.93697 5.65733 1.27941L6.48866 1.83475C6.62569 1.62919 6.81137 1.45999 7.0292 1.34345C7.24704 1.22692 7.49028 1.16666 7.73733 1.16675V0.166748ZM2 10.8334C1.54 10.8334 1.16666 10.4601 1.16666 10.0001H0.166664C0.166664 10.4863 0.359818 10.9526 0.703635 11.2964C1.04745 11.6403 1.51377 11.8334 2 11.8334V10.8334Z" fill="black"/>
</svg>
