<svg width="207" height="245" viewBox="0 0 207 245" fill="none" xmlns="http://www.w3.org/2000/svg">
<g clip-path="url(#clip0_1_1007)">
<path opacity="0.2" d="M93.1065 232.53C144.528 232.53 186.213 190.741 186.213 139.193C186.213 87.6448 144.528 45.8567 93.1065 45.8567C41.6852 45.8567 0 87.6448 0 139.193C0 190.741 41.6852 232.53 93.1065 232.53Z" fill="#FCA326"/>
<path d="M7.25434 217.477C3.27153 208.871 1.20633 199.5 1.20234 190.013C1.19835 180.527 3.25567 171.153 7.23124 162.544C11.2068 153.936 17.0052 146.298 24.2232 140.163C31.4412 134.029 39.9056 129.543 49.0278 127.02L54.5679 147.098C48.3538 148.815 42.5874 151.869 37.6698 156.046C32.7522 160.224 28.8015 165.425 26.0924 171.289C23.3833 177.152 21.981 183.537 21.9829 189.998C21.9847 196.46 23.3908 202.844 26.1033 208.706L7.25434 217.477Z" fill="#FCA326"/>
<path d="M8.34137 245C7.19041 245.001 6.06167 244.682 5.08023 244.08C4.09879 243.477 3.30295 242.614 2.78091 241.585C1.3223 238.714 0.442171 235.582 0.190765 232.37C-0.0606403 229.157 0.321605 225.927 1.31568 222.862C3.32329 216.673 7.70114 211.538 13.4861 208.585C16.3506 207.122 19.4742 206.24 22.6788 205.988C25.8834 205.736 29.1061 206.119 32.163 207.116C38.3366 209.128 43.4598 213.517 46.4056 219.316C46.7844 220.048 47.0149 220.848 47.0838 221.67C47.1527 222.492 47.0588 223.319 46.8073 224.104C46.5558 224.89 46.1517 225.617 45.6185 226.245C45.0852 226.873 44.4332 227.389 43.7001 227.763C42.967 228.138 42.1673 228.363 41.347 228.426C40.5267 228.488 39.7022 228.388 38.9208 228.13C38.1394 227.872 37.4167 227.462 36.7943 226.922C36.1719 226.383 35.6621 225.726 35.2943 224.988C34.5809 223.576 33.5965 222.318 32.3976 221.288C31.1988 220.257 29.8089 219.474 28.3076 218.982C26.8063 218.491 25.2231 218.302 23.6486 218.424C22.0741 218.547 20.5393 218.98 19.132 219.699C17.7247 220.417 16.4725 221.407 15.4473 222.611C14.422 223.815 13.6437 225.21 13.157 226.716C12.6703 228.222 12.4847 229.81 12.6108 231.388C12.737 232.966 13.1724 234.504 13.8922 235.913C14.3756 236.865 14.6073 237.926 14.5653 238.994C14.5233 240.062 14.2089 241.101 13.6521 242.013C13.0954 242.924 12.3149 243.677 11.3851 244.2C10.4554 244.723 9.40745 244.998 8.34137 245V245Z" fill="#474646"/>
<path d="M169.476 138.568C160.719 146.066 150.123 151.082 138.784 153.1L135.126 132.592C145.207 130.77 154.35 125.509 161.003 117.699C167.655 109.89 171.408 100.014 171.625 89.7473L192.401 90.1817C192.079 106.913 185.336 122.876 173.574 134.751C172.255 136.087 170.889 137.36 169.476 138.568Z" fill="#FCA326"/>
<path d="M198.374 89.5862C194.838 92.5979 190.52 94.5401 185.925 95.1864C181.33 95.8327 176.647 95.1565 172.42 93.2366C168.194 91.3167 164.599 88.2322 162.055 84.3426C159.51 80.453 158.12 75.9185 158.048 71.2676C158.032 69.6164 158.668 68.0259 159.818 66.8436C160.968 65.6613 162.538 64.9832 164.185 64.9575C165.832 64.9317 167.422 65.5605 168.609 66.7063C169.795 67.8521 170.48 69.422 170.515 71.0729C170.565 74.2652 171.878 77.3071 174.164 79.5294C176.451 81.7517 179.525 82.9722 182.709 82.9226C185.894 82.873 188.928 81.5572 191.145 79.2648C193.362 76.9724 194.579 73.891 194.53 70.6987C194.504 69.0413 195.136 67.4417 196.287 66.2515C197.438 65.0614 199.013 64.3783 200.666 64.3526C202.32 64.3268 203.915 64.9604 205.103 66.1141C206.29 67.2678 206.971 68.847 206.997 70.5043C207.056 73.7275 206.476 76.9303 205.292 79.9274C204.107 82.9245 202.342 85.6564 200.097 87.9649C199.545 88.5358 198.971 89.0762 198.374 89.5862Z" fill="#474646"/>
<path d="M153.906 0.476686L148.251 16.9171C148.215 17.0218 148.204 17.1336 148.219 17.2434C148.234 17.3532 148.275 17.4579 148.338 17.5491C148.4 17.6403 148.484 17.7154 148.581 17.7683C148.678 17.8213 148.786 17.8506 148.897 17.8539L152.712 17.9681C152.824 17.9714 152.933 18.0014 153.031 18.0557C153.129 18.1099 153.213 18.1867 153.276 18.2798C153.338 18.3729 153.378 18.4797 153.391 18.5911C153.404 18.7026 153.391 18.8156 153.352 18.9208L147.058 35.9059C147 36.0648 147 36.2396 147.059 36.3984C147.118 36.5572 147.232 36.6895 147.38 36.7711C147.528 36.8527 147.701 36.8782 147.866 36.843C148.031 36.8078 148.179 36.7142 148.281 36.5793L163.099 17.0008C163.165 16.914 163.209 16.8132 163.23 16.7063C163.25 16.5993 163.246 16.4891 163.217 16.3842C163.188 16.2793 163.135 16.1825 163.062 16.1015C162.99 16.0204 162.899 15.9573 162.799 15.9169L158.36 14.1417C158.274 14.107 158.194 14.0553 158.128 13.9897C158.061 13.9241 158.008 13.8459 157.972 13.7595C157.936 13.6732 157.917 13.5805 157.917 13.4868C157.916 13.3931 157.935 13.3003 157.971 13.2138L162.948 1.22888C162.991 1.12325 163.009 1.00854 162.999 0.89459C162.989 0.78064 162.951 0.670858 162.889 0.574672C162.828 0.478486 162.743 0.398769 162.644 0.342366C162.545 0.285964 162.433 0.254561 162.319 0.250855L154.595 0.000123621C154.445 -0.00474887 154.297 0.038903 154.173 0.124673C154.049 0.210444 153.955 0.333816 153.906 0.476686Z" fill="#FCA326"/>
<path d="M9.46708 75.9284L16.0563 88.7748C16.0981 88.8567 16.1202 88.9473 16.1207 89.0393C16.1213 89.1313 16.1003 89.2222 16.0594 89.3046C16.0185 89.387 15.9589 89.4586 15.8854 89.5137C15.8119 89.5688 15.7265 89.6058 15.6361 89.6218L12.5129 90.1678C12.4214 90.184 12.3349 90.2217 12.2607 90.2779C12.1866 90.3342 12.1268 90.4073 12.0863 90.4912C12.0459 90.5752 12.026 90.6676 12.0282 90.7608C12.0303 90.854 12.0546 90.9453 12.099 91.0272L19.2784 104.245C19.3443 104.369 19.3638 104.512 19.3336 104.649C19.3034 104.786 19.2254 104.908 19.1137 104.992C19.0019 105.076 18.8638 105.118 18.7243 105.109C18.5847 105.1 18.4528 105.042 18.3525 104.944L3.85901 90.6043C3.79498 90.5407 3.74643 90.4631 3.71714 90.3777C3.68785 90.2922 3.6786 90.2012 3.69012 90.1116C3.70163 90.0219 3.73359 89.9362 3.78353 89.861C3.83346 89.7857 3.90002 89.723 3.97803 89.6778L7.41752 87.692C7.48472 87.6531 7.54353 87.6012 7.59057 87.5393C7.6376 87.4774 7.67191 87.4068 7.69152 87.3315C7.71113 87.2562 7.71563 87.1778 7.70478 87.1008C7.69393 87.0237 7.66794 86.9496 7.62831 86.8827L2.12236 77.6191C2.07415 77.5375 2.04638 77.4454 2.0414 77.3506C2.03642 77.2559 2.0544 77.1613 2.09378 77.075C2.13317 76.9888 2.1928 76.9133 2.26758 76.8552C2.34237 76.797 2.43008 76.7579 2.52323 76.7411L8.84438 75.6195C8.96746 75.5978 9.09424 75.616 9.20626 75.6716C9.31827 75.7271 9.40965 75.8171 9.46708 75.9284Z" fill="#474646"/>
<path d="M35.0735 128.114L48.8498 206.219C50.6306 216.316 55.9019 225.461 63.7385 232.05C71.5752 238.639 81.4764 242.251 91.7045 242.251C101.676 242.251 111.346 238.818 119.095 232.527C126.844 226.236 132.203 217.468 134.276 207.69L151.14 128.113L35.0735 128.114Z" fill="#FCA326"/>
<path d="M93.1065 145.314C125.157 145.314 151.139 137.613 151.139 128.114C151.139 118.614 125.157 110.913 93.1065 110.913C61.0558 110.913 35.0735 118.614 35.0735 128.114C35.0735 137.613 61.0558 145.314 93.1065 145.314Z" fill="#474646"/>
<path d="M113.756 172.249H73.136C69.2883 172.249 66.1691 175.375 66.1691 179.233V198.932C66.1691 202.789 69.2883 205.916 73.136 205.916H113.756C117.603 205.916 120.723 202.789 120.723 198.932V179.233C120.723 175.375 117.603 172.249 113.756 172.249Z" fill="#474646"/>
<path d="M89.0446 189.711H86.6298C86.6298 186.522 88.0711 182.126 94.938 179.299C98.9605 177.643 97.6289 171.522 97.6144 171.461L99.9682 170.919C100.045 171.252 101.776 179.101 95.8557 181.536C91.336 183.397 89.0446 186.149 89.0446 189.711Z" fill="#FCA326"/>
<path d="M110.711 207.332C108.362 202.917 107.382 203.005 103.25 203.373C101.904 203.493 100.23 203.642 98.1867 203.642C89.0395 203.642 88.0877 196.968 88.0787 196.9L90.4739 196.595L89.2761 196.748L90.4725 196.584C90.5001 196.774 91.2315 201.221 98.186 201.221C100.122 201.221 101.67 201.083 103.035 200.962C107.684 200.547 109.866 200.599 112.841 206.192L110.711 207.332Z" fill="#FCA326"/>
<path d="M82.7963 190.952C82.7138 190.951 82.6325 190.932 82.5593 190.894L79.9491 189.545C79.8272 189.482 79.7352 189.373 79.6935 189.241C79.6518 189.11 79.6638 188.968 79.7268 188.846C79.7898 188.723 79.8986 188.631 80.0294 188.589C80.1602 188.548 80.3022 188.56 80.4242 188.623L83.0343 189.972C83.1377 190.025 83.2201 190.111 83.2684 190.217C83.3167 190.323 83.328 190.442 83.3005 190.556C83.273 190.669 83.2083 190.769 83.1169 190.841C83.0254 190.913 82.9125 190.952 82.7963 190.952Z" fill="white"/>
<path d="M79.6428 196.086C79.5221 196.085 79.4053 196.042 79.3126 195.965C79.22 195.887 79.1573 195.78 79.1354 195.661C79.1136 195.542 79.1339 195.419 79.1929 195.313C79.2519 195.208 79.3459 195.126 79.4586 195.083L82.2036 194.035C82.33 193.993 82.4676 194.002 82.5878 194.059C82.7079 194.117 82.8015 194.218 82.8489 194.343C82.8963 194.468 82.894 194.606 82.8425 194.729C82.7909 194.852 82.6941 194.95 82.572 195.003L79.827 196.051C79.7682 196.074 79.7058 196.085 79.6428 196.086Z" fill="white"/>
<path d="M96.1513 193.954C96.0217 193.953 95.8968 193.904 95.8014 193.816C95.706 193.728 95.6471 193.607 95.6364 193.478C95.6256 193.348 95.6638 193.219 95.7433 193.117C95.8228 193.014 95.9379 192.945 96.0658 192.923L98.9636 192.433C99.0986 192.41 99.2369 192.443 99.3482 192.522C99.4594 192.602 99.5347 192.723 99.5575 192.858C99.5803 192.993 99.5488 193.132 99.4698 193.244C99.3908 193.356 99.2709 193.432 99.1361 193.456L96.2383 193.946C96.2095 193.951 96.1805 193.954 96.1513 193.954Z" fill="white"/>
<path d="M94.0321 190.439C93.9396 190.439 93.8488 190.414 93.7691 190.367C93.6895 190.32 93.6239 190.252 93.5792 190.171C93.5345 190.09 93.5124 189.998 93.5151 189.905C93.5178 189.813 93.5453 189.722 93.5946 189.644L95.1626 187.154C95.1982 187.095 95.2451 187.043 95.3007 187.003C95.3563 186.962 95.4194 186.933 95.4864 186.917C95.5534 186.901 95.6228 186.899 95.6907 186.91C95.7586 186.921 95.8236 186.946 95.8818 186.983C95.94 187.02 95.9903 187.068 96.0298 187.124C96.0692 187.181 96.0971 187.245 96.1116 187.312C96.1261 187.38 96.1271 187.449 96.1144 187.517C96.1018 187.585 96.0757 187.649 96.0378 187.707L94.4699 190.197C94.4233 190.271 94.3586 190.332 94.2821 190.375C94.2055 190.417 94.1195 190.439 94.0321 190.439Z" fill="white"/>
<path d="M123.571 187.899C118.547 187.899 114.356 186.524 111.08 183.793C105.027 178.747 104.378 170.959 104.353 170.63L106.761 170.449L105.557 170.54L106.76 170.447C106.766 170.516 107.376 177.571 112.642 181.947C116.091 184.812 120.795 185.943 126.629 185.306L126.891 187.712C125.788 187.835 124.68 187.897 123.571 187.899Z" fill="#FCA326"/>
<path d="M60.6117 202.945L60.1656 200.565C69.424 198.82 69.4171 194.959 69.4092 190.489C69.404 187.478 69.3978 184.065 72.9359 182.07C79.5165 178.359 78.9894 169.947 78.9835 169.862L81.3915 169.68C81.4222 170.087 82.0577 179.703 74.1199 184.179C71.9269 185.416 71.8185 187.381 71.8241 190.484C71.8323 195.092 71.8423 200.828 60.6117 202.945Z" fill="#FCA326"/>
<path d="M131.977 133.48C131.93 133.48 131.884 133.475 131.839 133.466C129.225 132.939 124.293 130.699 124.337 125.99C124.334 125.067 124.552 124.157 124.975 123.337C125.398 122.517 126.012 121.812 126.765 121.281C125.994 119.849 125.766 118.186 126.123 116.598C127.109 111.448 132.281 110.546 134.88 110.79C135.061 110.808 135.229 110.897 135.345 111.038C135.461 111.179 135.517 111.36 135.5 111.542C135.483 111.725 135.395 111.893 135.255 112.01C135.115 112.127 134.934 112.184 134.753 112.168C134.498 112.144 128.474 111.661 127.478 116.859C127.184 118.113 127.352 119.432 127.949 120.573C130.51 119.334 134.018 119.328 135.629 120.562C135.951 120.784 136.202 121.095 136.351 121.457C136.5 121.82 136.54 122.218 136.467 122.603C136.144 124.287 134.172 125.127 131.675 124.647C130.103 124.359 128.665 123.573 127.573 122.403C126.995 122.807 126.524 123.346 126.201 123.973C125.877 124.601 125.711 125.298 125.717 126.004C125.673 130.742 132.047 132.097 132.111 132.11C132.279 132.144 132.429 132.239 132.531 132.377C132.632 132.515 132.679 132.686 132.662 132.857C132.645 133.028 132.566 133.186 132.439 133.301C132.312 133.417 132.147 133.48 131.976 133.48L131.977 133.48ZM128.817 121.697C129.688 122.51 130.769 123.062 131.938 123.287C133.584 123.603 134.95 123.197 135.114 122.341C135.138 122.208 135.12 122.071 135.063 121.949C135.005 121.826 134.91 121.726 134.792 121.661C133.75 120.862 131.035 120.732 128.817 121.697Z" fill="white"/>
<path d="M73.0022 128.285C72.8574 128.285 72.7162 128.239 72.5988 128.154C72.4813 128.069 72.3934 127.949 72.3476 127.812C72.3018 127.674 72.3004 127.525 72.3436 127.387C72.3868 127.248 72.4724 127.127 72.5882 127.04C72.7369 126.927 76.2105 124.243 74.2355 120.985C73.812 120.225 73.1473 119.629 72.3471 119.29C71.4846 121.262 69.5344 122.991 68.0027 123.12C67.6799 123.163 67.3516 123.111 67.0581 122.969C66.7645 122.828 66.5185 122.604 66.3502 122.325C66.1612 121.995 66.0654 121.621 66.0731 121.241C66.0808 120.861 66.1916 120.491 66.3937 120.169C67.1626 118.761 69.0752 117.709 70.9406 117.667C71.0958 117.664 71.251 117.667 71.4028 117.677C71.4894 117.207 71.4656 116.723 71.3332 116.264C71.2009 115.805 70.9637 115.383 70.6404 115.031C68.3711 112.47 64.2734 114.87 64.2327 114.895C64.1548 114.941 64.0686 114.972 63.9789 114.985C63.8892 114.998 63.7979 114.993 63.71 114.971C63.6222 114.949 63.5396 114.909 63.467 114.855C63.3943 114.801 63.3331 114.733 63.2867 114.655C63.2404 114.577 63.2098 114.49 63.1967 114.4C63.1837 114.31 63.1884 114.219 63.2107 114.131C63.233 114.043 63.2723 113.96 63.3265 113.887C63.3807 113.814 63.4486 113.753 63.5265 113.706C63.7335 113.582 68.6543 110.705 71.6719 114.112C72.1398 114.625 72.4815 115.24 72.6696 115.909C72.8577 116.578 72.887 117.282 72.7552 117.964C73.8774 118.405 74.8158 119.216 75.4147 120.265C77.5191 123.733 75.0269 126.935 73.4162 128.144C73.2971 128.235 73.1518 128.284 73.0022 128.285ZM70.9323 119.053C69.4306 119.102 68.0634 119.993 67.6028 120.836C67.522 120.946 67.4725 121.076 67.4594 121.212C67.4463 121.348 67.4703 121.485 67.5287 121.609C67.5632 121.667 67.6239 121.762 67.8881 121.743C68.753 121.671 70.1733 120.519 70.9316 119.053H70.9323Z" fill="white"/>
<path d="M148.554 70.6947C152.087 95.7333 128.649 111.346 97.6399 115.742C66.631 120.138 39.7947 111.653 36.2627 86.6122C32.7307 61.5719 53.8407 29.4589 84.8493 25.0633C115.858 20.6677 145.023 45.6544 148.554 70.6947Z" fill="#FCA326"/>
<path d="M118.807 43.9185L86.8707 48.4454C76.86 49.8644 69.8922 59.15 71.3076 69.1854C72.7231 79.2208 81.9858 86.2058 91.9965 84.7869L123.933 80.26C133.944 78.8411 140.912 69.5555 139.496 59.52C138.081 49.4846 128.818 42.4996 118.807 43.9185Z" fill="white"/>
<path d="M82.1026 5.68654L79.6261 6.16235L84.4089 31.1776L86.8853 30.7017L82.1026 5.68654Z" fill="#FCA326"/>
<path d="M81.2183 12.3944C83.7634 12.3944 85.8266 10.3261 85.8266 7.77472C85.8266 5.22333 83.7634 3.15503 81.2183 3.15503C78.6732 3.15503 76.61 5.22333 76.61 7.77472C76.61 10.3261 78.6732 12.3944 81.2183 12.3944Z" fill="#474646"/>
<path d="M98.5158 73.3772C98.0676 73.3773 97.6316 73.2308 97.2739 72.9601L83.7122 62.7347C83.4911 62.5724 83.3043 62.3677 83.1628 62.1324C83.0212 61.8972 82.9277 61.6361 82.8876 61.3643C82.8474 61.0926 82.8616 60.8155 82.9291 60.5492C82.9967 60.283 83.1163 60.0328 83.281 59.8133C83.4458 59.5937 83.6524 59.4091 83.8888 59.2702C84.1253 59.1314 84.3869 59.0409 84.6585 59.0042C84.9301 58.9675 85.2063 58.9852 85.471 59.0563C85.7357 59.1274 85.9837 59.2506 86.2006 59.4185L99.7616 69.6446C100.109 69.9061 100.366 70.2707 100.496 70.6868C100.625 71.1028 100.621 71.5492 100.483 71.9626C100.345 72.3759 100.081 72.7352 99.7276 72.9896C99.3746 73.2439 98.9506 73.3804 98.5158 73.3796V73.3772Z" fill="#474646"/>
<path d="M86.6342 75.0609C86.2497 75.0606 85.8729 74.953 85.546 74.75C85.2191 74.547 84.955 74.2568 84.7834 73.9118C84.6119 73.5668 84.5395 73.1808 84.5746 72.7969C84.6096 72.413 84.7506 72.0465 84.9818 71.7385L95.1833 58.1436C95.5151 57.7088 96.0048 57.4231 96.5459 57.3486C97.0869 57.2742 97.6353 57.4171 98.0717 57.7462C98.5081 58.0753 98.7971 58.564 98.8757 59.1057C98.9543 59.6475 98.8161 60.1984 98.4913 60.6385L88.2902 74.2333C88.0972 74.4908 87.8472 74.6996 87.5597 74.8432C87.2723 74.9869 86.9554 75.0614 86.6342 75.0609Z" fill="#474646"/>
<path d="M127.966 69.2019C127.518 69.202 127.082 69.0556 126.724 68.7848L113.163 58.5584C112.944 58.3953 112.76 58.1903 112.62 57.9554C112.48 57.7205 112.388 57.4602 112.349 57.1895C112.31 56.9189 112.325 56.6432 112.393 56.3782C112.461 56.1133 112.58 55.8644 112.744 55.6459C112.908 55.4273 113.113 55.2434 113.348 55.1047C113.584 54.966 113.844 54.8753 114.114 54.8378C114.384 54.8002 114.659 54.8166 114.923 54.8859C115.187 54.9553 115.434 55.0762 115.652 55.2418L129.213 65.4682C129.56 65.7297 129.817 66.0944 129.947 66.5105C130.076 66.9265 130.072 67.3729 129.934 67.7862C129.796 68.1996 129.532 68.5589 129.179 68.8133C128.826 69.0676 128.402 69.2041 127.967 69.2033L127.966 69.2019Z" fill="#474646"/>
<path d="M116.085 70.8866C115.701 70.8863 115.324 70.7787 114.997 70.5757C114.67 70.3728 114.406 70.0826 114.234 69.7376C114.063 69.3926 113.99 69.0065 114.025 68.6226C114.06 68.2387 114.201 67.8722 114.432 67.5641L124.634 53.9693C124.964 53.5295 125.454 53.2391 125.998 53.162C126.542 53.085 127.093 53.2276 127.532 53.5584C127.971 53.8893 128.261 54.3813 128.337 54.9262C128.414 55.4711 128.272 56.0243 127.942 56.4641L117.741 70.059C117.548 70.3164 117.298 70.5252 117.011 70.6689C116.723 70.8125 116.406 70.8871 116.085 70.8866Z" fill="#474646"/>
<path d="M108.269 90.463C108.892 89.6362 109.737 89.0038 110.704 88.6397C111.672 88.2756 112.723 88.1946 113.735 88.4063C114.747 88.618 115.678 89.1135 116.419 89.8352C117.161 90.557 117.683 91.4751 117.924 92.4827C117.968 92.6609 117.976 92.8461 117.948 93.0276C117.92 93.2091 117.857 93.3832 117.762 93.54C117.667 93.6968 117.541 93.8332 117.393 93.9413C117.245 94.0494 117.077 94.1271 116.899 94.1699C116.721 94.2127 116.536 94.2198 116.356 94.1907C116.175 94.1616 116.001 94.097 115.846 94.0005C115.69 93.904 115.554 93.7776 115.448 93.6285C115.341 93.4794 115.264 93.3106 115.223 93.1318C115.141 92.7894 114.992 92.4664 114.786 92.1815C114.58 91.8965 114.319 91.6551 114.02 91.471C113.72 91.2869 113.388 91.1637 113.041 91.1085C112.694 91.0533 112.339 91.0672 111.998 91.1493C111.656 91.2314 111.334 91.3802 111.05 91.5871C110.765 91.794 110.525 92.055 110.341 92.3552C110.157 92.6555 110.034 92.989 109.979 93.3368C109.924 93.6846 109.938 94.0399 110.02 94.3824C110.103 94.7405 110.042 95.1171 109.849 95.4299C109.656 95.7428 109.348 95.9665 108.991 96.0522C108.634 96.1379 108.258 96.0787 107.945 95.8875C107.632 95.6962 107.407 95.3885 107.319 95.0315C107.15 94.3335 107.121 93.6089 107.234 92.8997C107.346 92.1904 107.598 91.5105 107.974 90.8994C108.066 90.7486 108.164 90.6032 108.269 90.463Z" fill="#474646"/>
</g>
<defs>
<clipPath id="clip0_1_1007">
<rect width="207" height="245" fill="white"/>
</clipPath>
</defs>
</svg>
